REM DIRINDEX 1\3,1\4,1\5,1\6,1\2\7,1\2\8,1\2\9,1\10
REM DIRNAME cjc056,folder01,folder02,folder03,folder04,folder05,folder06,folder07,folder08,folder09
TITLE ""
FILE "1-61 Level 3-家.mp3" MP3
  TRACK 01 AUDIO
    TITLE "0:"
    INDEX 01 00:00:00
  TRACK 02 AUDIO
    TITLE "5:cjc056_1804"
    INDEX 01 00:00:11
  TRACK 03 AUDIO
    TITLE "0:"
    INDEX 01 00:01:11
  TRACK 04 AUDIO
    TITLE "5:cjc056_1805"
    INDEX 01 00:02:26
  TRACK 05 AUDIO
    TITLE "0:"
    INDEX 01 00:03:25
  TRACK 06 AUDIO
    TITLE "5:cjc056_1806"
    INDEX 01 00:03:39
  TRACK 07 AUDIO
    TITLE "0:"
    INDEX 01 00:04:31
  TRACK 08 AUDIO
    TITLE "5:cjc056_1807"
    INDEX 01 00:05:03
  TRACK 09 AUDIO
    TITLE "0:"
    INDEX 01 00:06:18
  TRACK 10 AUDIO
    TITLE "5:cjc056_1808"
    INDEX 01 00:06:31
  TRACK 11 AUDIO
    TITLE "0:"
    INDEX 01 00:07:23
  TRACK 12 AUDIO
    TITLE "5:cjc056_1809"
    INDEX 01 00:07:74
  TRACK 13 AUDIO
    TITLE "0:"
    INDEX 01 00:09:10
  TRACK 14 AUDIO
    TITLE "5:cjc056_1810"
    INDEX 01 00:09:20
  TRACK 15 AUDIO
    TITLE "0:"
    INDEX 01 00:10:12
  TRACK 16 AUDIO
    TITLE "5:cjc056_1811"
    INDEX 01 00:10:61
  TRACK 17 AUDIO
    TITLE "0:"
    INDEX 01 00:11:70
  TRACK 18 AUDIO
    TITLE "5:cjc056_1812"
    INDEX 01 00:12:03
  TRACK 19 AUDIO
    TITLE "0:"
    INDEX 01 00:13:24
  TRACK 20 AUDIO
    TITLE "5:cjc056_1813"
    INDEX 01 00:13:71
  TRACK 21 AUDIO
    TITLE "0:"
    INDEX 01 00:15:17
  TRACK 22 AUDIO
    TITLE "5:cjc056_1814"
    INDEX 01 00:15:30
  TRACK 23 AUDIO
    TITLE "0:"
    INDEX 01 00:16:30
  TRACK 24 AUDIO
    TITLE "5:cjc056_1815"
    INDEX 01 00:17:04
  TRACK 25 AUDIO
    TITLE "0:"
    INDEX 01 00:18:19
  TRACK 26 AUDIO
    TITLE "5:cjc056_1816"
    INDEX 01 00:18:33
  TRACK 27 AUDIO
    TITLE "0:"
    INDEX 01 00:19:56
  TRACK 28 AUDIO
    TITLE "5:cjc056_1817"
    INDEX 01 00:20:28
  TRACK 29 AUDIO
    TITLE "0:"
    INDEX 01 00:21:31
  TRACK 30 AUDIO
    TITLE "5:cjc056_1818"
    INDEX 01 00:21:47
  TRACK 31 AUDIO
    TITLE "0:"
    INDEX 01 00:22:52
  TRACK 32 AUDIO
    TITLE "5:cjc056_1819"
    INDEX 01 00:23:26
  TRACK 33 AUDIO
    TITLE "0:"
    INDEX 01 00:24:37
  TRACK 34 AUDIO
    TITLE "5:cjc056_1820"
    INDEX 01 00:24:49
  TRACK 35 AUDIO
    TITLE "0:"
    INDEX 01 00:25:45
  TRACK 36 AUDIO
    TITLE "5:cjc056_1821"
    INDEX 01 00:26:15
  TRACK 37 AUDIO
    TITLE "0:"
    INDEX 01 00:27:18
  TRACK 38 AUDIO
    TITLE "5:cjc056_1822"
    INDEX 01 00:27:30
  TRACK 39 AUDIO
    TITLE "0:"
    INDEX 01 00:28:37
  TRACK 40 AUDIO
    TITLE "5:cjc056_1823"
    INDEX 01 00:29:11
  TRACK 41 AUDIO
    TITLE "0:"
    INDEX 01 00:30:22
  TRACK 42 AUDIO
    TITLE "5:cjc056_1824"
    INDEX 01 00:30:36
  TRACK 43 AUDIO
    TITLE "0:"
    INDEX 01 00:31:45
  TRACK 44 AUDIO
    TITLE "5:cjc056_1825"
    INDEX 01 00:32:19
  TRACK 45 AUDIO
    TITLE "0:"
    INDEX 01 00:33:22
  TRACK 46 AUDIO
    TITLE "5:cjc056_1826"
    INDEX 01 00:33:32
  TRACK 47 AUDIO
    TITLE "0:"
    INDEX 01 00:34:36
  TRACK 48 AUDIO
    TITLE "5:cjc056_1827"
    INDEX 01 00:35:14
  TRACK 49 AUDIO
    TITLE "0:"
    INDEX 01 00:36:27
  TRACK 50 AUDIO
    TITLE "5:cjc056_1828"
    INDEX 01 00:36:40
  TRACK 51 AUDIO
    TITLE "0:"
    INDEX 01 00:37:46
  TRACK 52 AUDIO
    TITLE "5:cjc056_1829"
    INDEX 01 00:38:20
  TRACK 53 AUDIO
    TITLE "0:"
    INDEX 01 00:39:27
  TRACK 54 AUDIO
    TITLE "5:cjc056_1830"
    INDEX 01 00:39:39
  TRACK 55 AUDIO
    TITLE "0:"
    INDEX 01 00:40:50
  TRACK 56 AUDIO
    TITLE "5:cjc056_1831"
    INDEX 01 00:41:24
  TRACK 57 AUDIO
    TITLE "0:"
    INDEX 01 00:42:41
  TRACK 58 AUDIO
    TITLE "5:cjc056_1832"
    INDEX 01 00:42:51
  TRACK 59 AUDIO
    TITLE "0:"
    INDEX 01 00:43:54
  TRACK 60 AUDIO
    TITLE "5:cjc056_1833"
    INDEX 01 00:44:28
  TRACK 61 AUDIO
    TITLE "0:"
    INDEX 01 00:45:35
  TRACK 62 AUDIO
    TITLE "5:cjc056_1834"
    INDEX 01 00:45:47
  TRACK 63 AUDIO
    TITLE "0:"
    INDEX 01 00:46:62
  TRACK 64 AUDIO
    TITLE "5:cjc056_1835"
    INDEX 01 00:47:38
  TRACK 65 AUDIO
    TITLE "0:"
    INDEX 01 00:48:38
  TRACK 66 AUDIO
    TITLE "5:cjc056_1836"
    INDEX 01 00:48:53
  TRACK 67 AUDIO
    TITLE "0:"
    INDEX 01 00:49:59
  TRACK 68 AUDIO
    TITLE "5:cjc056_1837"
    INDEX 01 00:50:33
  TRACK 69 AUDIO
    TITLE "0:"
    INDEX 01 00:51:44
  TRACK 70 AUDIO
    TITLE "5:cjc056_1838"
    INDEX 01 00:51:58
  TRACK 71 AUDIO
    TITLE "0:"
    INDEX 01 00:52:51
  TRACK 72 AUDIO
    TITLE "5:cjc056_1839"
    INDEX 01 00:53:25
  TRACK 73 AUDIO
    TITLE "0:"
    INDEX 01 00:54:62
  TRACK 74 AUDIO
    TITLE "5:cjc056_1840"
    INDEX 01 00:55:03
  TRACK 75 AUDIO
    TITLE "0:"
    INDEX 01 00:55:63
  TRACK 76 AUDIO
    TITLE "5:cjc056_1841"
    INDEX 01 00:56:37
  TRACK 77 AUDIO
    TITLE "0:"
    INDEX 01 00:57:46
  TRACK 78 AUDIO
    TITLE "5:cjc056_1842"
    INDEX 01 00:57:60
  TRACK 79 AUDIO
    TITLE "0:"
    INDEX 01 00:59:08
  TRACK 80 AUDIO
    TITLE "5:cjc056_1843"
    INDEX 01 00:59:55
  TRACK 81 AUDIO
    TITLE "0:"
    INDEX 01 01:01:11
  TRACK 82 AUDIO
    TITLE "5:cjc056_1844"
    INDEX 01 01:01:27
  TRACK 83 AUDIO
    TITLE "0:"
    INDEX 01 01:02:46
  TRACK 84 AUDIO
    TITLE "10:cjc056_1845"
    INDEX 01 01:04:19
  TRACK 85 AUDIO
    TITLE "0:"
    INDEX 01 01:06:69
